Coordinates
version=1
nRows=17
nColumns=24
inDegrees=yes

Units are S.I. units (second, meters, Newtons, ...)
Angles are in degrees.

endheader
time	pelvis_tilt	pelvis_list	pelvis_rotation	pelvis_tx	pelvis_ty	pelvis_tz	hip_flexion_r	hip_adduction_r	hip_rotation_r	knee_angle_r	ankle_angle_r	subtalar_angle_r	mtp_angle_r	hip_flexion_l	hip_adduction_l	hip_rotation_l	knee_angle_l	ankle_angle_l	subtalar_angle_l	mtp_angle_l	lumbar_extension	lumbar_bending	lumbar_rotation
      5.33000000	     -7.63878860	     -7.52279157	      3.27766944	     -0.68985642	     -0.01567190	      2.03134001	      3.04093034	     12.99383860	     -9.43640047	     -7.96181697	      5.36062187	     -3.50914385	      7.96224512	     35.79345154	     -5.60375212	      1.45818777	    -45.25555099	     -2.81152053	     -4.09474319	     34.22531545	      5.17102016	      7.13705040	     -1.50784706
      5.34000000	     -7.79801951	     -7.28033058	      3.14183918	     -0.67795158	     -0.01670130	      2.03185697	      2.01251029	     12.84652656	     -9.48965691	     -7.29274918	      5.76546841	     -3.06307519	      8.13040298	     36.34190168	     -5.36545180	      0.71594465	    -42.11880999	     -2.56202455	     -3.16434502	     33.96314380	      5.18768292	      6.88144048	     -1.18624136
      5.35000000	     -7.86748675	     -7.05434708	      3.07437219	     -0.66600062	     -0.01788365	      2.03223306	      0.91319289	     12.70923540	     -9.67732229	     -6.66390514	      6.20873891	     -2.55694398	      8.34047594	     36.68494536	     -5.14684784	     -0.11636437	    -38.82483055	     -2.40834874	     -2.11529234	     33.59128901	      5.11188730	      6.64138130	     -0.95952880
      5.36000000	     -7.87742794	     -6.82585873	      3.10689766	     -0.65399222	     -0.01919167	      2.03239727	     -0.21453896	     12.56259745	     -9.97953689	     -6.08935186	      6.64259503	     -2.06048649	      8.62275598	     36.84889118	     -4.87028049	     -0.96562329	    -35.39082771	     -2.45416282	     -1.07005189	     33.08426762	      4.97881818	      6.39512475	     -0.83314007
      5.37000000	     -8.01134814	     -6.67860458	      3.03230999	     -0.64195076	     -0.02082535	      2.03262868	     -1.12277681	     12.49552883	    -10.24476171	     -5.68744698	      7.09314080	     -1.60018949	      8.76726784	     37.05252451	     -4.74017900	     -1.99189710	    -31.92652675	     -2.54264390	      0.08498216	     32.91045194	      4.96872342	      6.24158881	     -0.65677601
      5.38000000	     -8.01468204	     -6.47215031	      3.02761788	     -0.62982012	     -0.02239292	      2.03264754	     -2.10834137	     12.35279933	    -10.61990247	     -5.41570348	      7.58016227	     -1.09259306	      8.87839146	     36.98259486	     -4.47842384	     -2.96839045	    -28.39803550	     -2.80462264	      1.05452587	     32.80633613	      4.82044566	      6.03446635	     -0.52809522
      5.39000000	     -7.99545063	     -6.25405326	      3.04636440	     -0.61759892	     -0.02400783	      2.03249146	     -3.02354560	     12.17408263	    -11.07055076	     -5.33046300	      8.09421422	     -0.55915886	      8.95188118	     36.80221582	     -4.14419513	     -3.85381125	    -24.93102092	     -3.11436657	      1.84753828	     32.73675196	      4.65146895	      5.82394573	     -0.44099180
      5.40000000	     -7.94725286	     -6.00562048	      3.09873001	     -0.60522691	     -0.02562430	      2.03214361	     -3.87630895	     11.92904736	    -11.61817729	     -5.44021086	      8.64885955	      0.07376365	      9.00772265	     36.51796843	     -3.71106109	     -4.56877513	    -21.59911832	     -3.38304045	      2.42873050	     32.58181493	      4.46664675	      5.58855568	     -0.39440951
      5.41000000	     -7.95000667	     -5.72788621	      3.07465458	     -0.59280097	     -0.02724725	      2.03172736	     -4.53496465	     11.59478871	    -12.17891340	     -5.83894857	      9.24513705	      0.80948642	      9.10331761	     36.24533088	     -3.25568766	     -5.22767454	    -18.50183938	     -3.59661383	      2.81170569	     32.18751884	      4.32256657	      5.34067570	     -0.31938865
      5.42000000	     -7.83304083	     -5.39933007	      3.17215088	     -0.58014250	     -0.02874005	      2.03103328	     -5.25857015	     11.16138042	    -12.93692444	     -6.38762511	      9.86014245	      1.79495101	      9.25323898	     35.81342982	     -2.65632222	     -5.58068203	    -15.70779664	     -3.56974365	      3.10506874	     31.14794312	      4.08201348	      5.03617333	     -0.42081352
      5.43000000	     -7.84277504	     -5.03702989	      3.08524717	     -0.56725471	     -0.03021205	      2.03038330	     -5.76975801	     10.61975377	    -13.45206717	     -7.13308440	     10.35576368	      2.75061715	      9.57543831	     35.48722925	     -2.09057272	     -5.81277854	    -13.35659315	     -3.13400871	      3.29941312	     28.19452018	      3.98333747	      4.71683467	     -0.35076721
      5.44000000	     -7.87761553	     -4.70671773	      3.00404479	     -0.55414300	     -0.03171692	      2.02973163	     -6.17778362	     10.05317160	    -14.05153023	     -8.06506470	     10.86741433	      3.96891120	      9.84374517	     35.21290135	     -1.58848717	     -6.03992350	    -11.41120149	     -2.76615419	      3.63339596	     27.12021947	      3.93568632	      4.41417137	     -0.30803135
      5.45000000	     -7.86408835	     -4.34782015	      2.86307371	     -0.54075733	     -0.03304280	      2.02908181	     -6.60687259	      9.40803782	    -14.49665906	     -9.09333448	     11.20524040	      5.16829357	     10.15833832	     34.88559320	     -1.09787088	     -6.17482589	     -9.96970164	     -2.24454523	      3.92027170	     25.29818981	      3.85798650	      4.08534744	     -0.24602510
      5.46000000	     -7.94038630	     -4.03544151	      2.58096173	     -0.52706054	     -0.03437511	      2.02858242	     -6.91737638	      8.78713392	    -14.50854709	    -10.16894835	     11.24151654	      5.99379858	     10.66284692	     34.71079396	     -0.73542640	     -6.17499882	     -9.19455865	     -1.39428902	      4.16867141	     22.19630483	      3.90665665	      3.80105406	     -0.02541811
      5.47000000	     -8.05674473	     -3.80878332	      2.29978461	     -0.51301742	     -0.03576161	      2.02809146	     -7.13961659	      8.21435712	    -14.50759387	    -11.35896985	     11.20517304	      6.98676285	     10.87355550	     34.64571832	     -0.50184113	     -6.31068513	     -8.94382088	     -0.94031109	      4.44641215	     22.06533759	      4.05118680	      3.59077625	      0.09990688
      5.48000000	     -8.14445863	     -3.54646646	      1.98518635	     -0.49861925	     -0.03705324	      2.02766172	     -7.35229391	      7.58555539	    -14.31271545	    -12.64087611	     10.98567181	      7.81311207	     11.06797972	     34.56359812	     -0.27069659	     -6.34346116	     -9.21753034	     -0.70225273	      4.37254760	     22.03417789	      4.20429516	      3.32962878	      0.28397869
      5.49000000	     -8.07413122	     -3.21350250	      1.83552381	     -0.48379985	     -0.03821605	      2.02700731	     -7.72813144	      6.85600043	    -14.35230283	    -13.96213611	     10.60356125	      8.85744241	     11.72385484	     34.33200307	      0.10027670	     -6.21334249	     -9.96444534	     -0.73919802	      3.96047110	     21.90364905	      4.25011727	      2.96821882	      0.26661302
